<svg xmlns="http://www.w3.org/2000/svg" width="32.806" height="28.834" viewBox="0 0 32.806 28.834">
  <g id="Group_389" data-name="Group 389" transform="translate(-1064 -27.106)">
    <g id="shopping-cart" transform="translate(1064 27.107)">
      <path id="Path_15" data-name="Path 15" d="M10.57,19.223H28a.961.961,0,0,0,.924-.7L32.769,5.07a.961.961,0,0,0-.924-1.225H8.353L7.666.753A.961.961,0,0,0,6.728,0H.961a.961.961,0,1,0,0,1.922h5l3.47,15.616a2.883,2.883,0,0,0,1.145,5.529H28a.961.961,0,1,0,0-1.922H10.572a.961.961,0,0,1,0-1.922Zm20-13.456L27.275,17.3H11.343L8.78,5.767Zm0,0" transform="translate(0 0)" fill="#fff"/>
      <path id="Path_16" data-name="Path 16" d="M150,362.883A2.883,2.883,0,1,0,152.883,360,2.887,2.887,0,0,0,150,362.883Zm2.883-.961a.961.961,0,1,1-.961.961A.962.962,0,0,1,152.883,361.922Zm0,0" transform="translate(-140.389 -336.933)" fill="#fff"/>
      <path id="Path_17" data-name="Path 17" d="M362,362.883A2.883,2.883,0,1,0,364.883,360,2.887,2.887,0,0,0,362,362.883Zm2.883-.961a.961.961,0,1,1-.961.961A.962.962,0,0,1,364.883,361.922Zm0,0" transform="translate(-338.805 -336.933)" fill="#fff"/>
    </g>
  </g>
</svg>
