<svg id="search" xmlns="http://www.w3.org/2000/svg" width="45.202" height="45.203" viewBox="0 0 45.202 45.203">
  <path id="Path_126" data-name="Path 126" d="M10.018,153.377l-1.573,5.874-5.751.122a22.641,22.641,0,0,1-.166-21.1h0l5.12.939L9.891,144.3a13.488,13.488,0,0,0,.127,9.081Z" transform="translate(0 -126.061)" fill="#fbbb00"/>
  <path id="Path_127" data-name="Path 127" d="M283.337,208.176a22.593,22.593,0,0,1-8.057,21.847h0l-6.449-.329-.913-5.7a13.47,13.47,0,0,0,5.8-6.878H261.628v-8.941h21.709Z" transform="translate(-238.53 -189.797)" fill="#518ef8"/>
  <path id="Path_128" data-name="Path 128" d="M64.565,322.318h0A22.608,22.608,0,0,1,30.509,315.4l7.324-6a13.442,13.442,0,0,0,19.37,6.882Z" transform="translate(-27.816 -282.093)" fill="#28b446"/>
  <path id="Path_129" data-name="Path 129" d="M63.124,5.2,55.8,11.2a13.44,13.44,0,0,0-19.814,7.037l-7.363-6.028h0a22.606,22.606,0,0,1,34.5-7Z" transform="translate(-26.097)" fill="#f14336"/>
</svg>
