<svg id="presentation" xmlns="http://www.w3.org/2000/svg" width="176.675" height="154.5" viewBox="0 0 176.675 154.5">
  <path id="Path_21" data-name="Path 21" d="M286.684,0h-77.62A16.262,16.262,0,0,0,192.8,16.263V54.5l12.675,6.3,6.331-12.668a15.528,15.528,0,1,1,27.778,13.889L228.3,84.6a23.578,23.578,0,0,1-.809,8.916h7.451l-19.653,54.041a5.176,5.176,0,1,0,9.728,3.537l20.939-57.578h3.627l21.152,57.6a5.176,5.176,0,0,0,9.717-3.568L260.61,93.513h26.074a16.263,16.263,0,0,0,16.263-16.263V16.263A16.263,16.263,0,0,0,286.684,0ZM275.593,71.339H252.37a5.176,5.176,0,0,1,0-10.352h23.223a5.176,5.176,0,1,1,0,10.352Zm0-19.406H252.37a5.176,5.176,0,0,1,0-10.352h23.223a5.176,5.176,0,1,1,0,10.352Zm0-19.4H220.154a5.176,5.176,0,1,1,0-10.352h55.439a5.176,5.176,0,1,1,0,10.352Zm0,0" transform="translate(-126.272)" fill="#161a4f"/>
  <path id="Path_22" data-name="Path 22" d="M91.071,110.941a13.383,13.383,0,0,0,.139-8.216l12.846-25.689a5.176,5.176,0,1,0-9.259-4.63L83.841,94.316c-6.548-3.261-16.5-8.208-24.512-12.193-7.457-3.708-12.778-7.033-21.858-7.033H32.9a22.548,22.548,0,1,0-16.416-7.094A22.488,22.488,0,0,0,32.9,75.089a33.062,33.062,0,0,0-23.25,9.63A32.636,32.636,0,0,0,0,107.986v16.632a16.292,16.292,0,0,0,11.088,15.42V168.97a5.176,5.176,0,0,0,5.176,5.176H49.528A5.176,5.176,0,0,0,54.7,168.97V110.814c4.908,2.453,11.355,5.676,16.571,8.286A14.178,14.178,0,0,0,91.051,111l.02-.061Zm0,0" transform="translate(0 -19.648)" fill="#161a4f"/>
</svg>
