<svg id="profile" xmlns="http://www.w3.org/2000/svg" width="102" height="102.001" viewBox="0 0 102 102.001">
  <g id="Group_55" data-name="Group 55" transform="translate(0 0)">
    <g id="Group_41" data-name="Group 41" transform="translate(0 0.03)">
      <path id="Path_45" data-name="Path 45" d="M51.005,96.409l20.207-5.1A52.22,52.22,0,0,0,49.25.149,51,51,0,0,0,15.1,87.345Z" transform="translate(0 -0.149)" fill="#cbe2ff"/>
    </g>
    <g id="Group_42" data-name="Group 42" transform="translate(44.517)">
      <path id="Path_46" data-name="Path 46" d="M267.974,51A50.921,50.921,0,0,1,247.5,91.856l18.334-4.63A51,51,0,0,0,229.94,0a51.5,51.5,0,0,0-6.483.408A51.01,51.01,0,0,1,267.974,51Z" transform="translate(-223.457 0)" fill="#bed8fb"/>
    </g>
    <g id="Group_54" data-name="Group 54" transform="translate(13.952 14.598)">
      <g id="Group_53" data-name="Group 53">
        <g id="Group_52" data-name="Group 52">
          <path id="Path_47" data-name="Path 47" d="M191.7,77.994a4.716,4.716,0,0,0-4.716-4.716H170.734A10.855,10.855,0,0,0,159.88,84.132V96.184h38.292V84.3a4.716,4.716,0,0,0-4.716-4.716H193.3A1.593,1.593,0,0,1,191.7,77.994Z" transform="translate(-141.98 -73.278)" fill="#365e7d"/>
          <path id="Path_48" data-name="Path 48" d="M295.252,79.586h-.159a1.593,1.593,0,0,1-1.593-1.593,4.716,4.716,0,0,0-4.716-4.716H287V96.183h12.966V84.3A4.716,4.716,0,0,0,295.252,79.586Z" transform="translate(-243.777 -73.277)" fill="#2b4d66"/>
          <path id="Path_49" data-name="Path 49" d="M140.758,341.48a11.307,11.307,0,0,0-4.54-2.738l-13.924-4.408-15.21-.535-15.216.535-13.924,4.408a11.332,11.332,0,0,0-7.912,10.8v3.8a50.853,50.853,0,0,0,35.3,15.922A52.31,52.31,0,0,0,140.758,341.48Z" transform="translate(-70.032 -281.898)" fill="#4a80aa"/>
          <path id="Path_50" data-name="Path 50" d="M267.037,381.237v-3.8a11.33,11.33,0,0,0-4.2-8.808,51.043,51.043,0,0,1-39.315,28.153,51.475,51.475,0,0,0,6.38.41,54.538,54.538,0,0,0,6.141-.355A50.869,50.869,0,0,0,267.037,381.237Z" transform="translate(-192.94 -309.786)" fill="#407093"/>
          <path id="Path_51" data-name="Path 51" d="M215.381,354.332c3.086-6.126,11.121-23.521,8.83-34.387l-9.981-3.885-9.99,3.885c-2.362,11.2,6.25,29.34,9.1,34.921Q214.368,354.619,215.381,354.332Z" transform="translate(-177.178 -267.693)" fill="#e4f6ff"/>
          <path id="Path_52" data-name="Path 52" d="M236.671,419.793l-4.047-15.921h-4.735l-4.037,15.878,4.992,5.558q1.9-.435,3.747-1.007Z" transform="translate(-193.208 -338.011)" fill="#e28086"/>
          <path id="Path_53" data-name="Path 53" d="M245.347,500.472c.413.011.828.018,1.243.019.481,0,.961-.009,1.439-.023l2.571-2.841a50.6,50.6,0,0,1-6.237,1.749Z" transform="translate(-209.633 -413.089)" fill="#dd636e"/>
          <g id="Group_50" data-name="Group 50" transform="translate(17.899 12.779)">
            <g id="Group_49" data-name="Group 49" transform="translate(10.621 29.025)">
              <g id="Group_48" data-name="Group 48">
                <g id="Group_47" data-name="Group 47">
                  <g id="Group_46" data-name="Group 46">
                    <g id="Group_45" data-name="Group 45">
                      <g id="Group_44" data-name="Group 44">
                        <g id="Group_43" data-name="Group 43">
                          <path id="Path_54" data-name="Path 54" d="M230.243,292.1v-8.978H213.194V292.1c0,4.708,8.525,9.851,8.525,9.851S230.243,296.8,230.243,292.1Z" transform="translate(-213.194 -283.117)" fill="#ffddce"/>
                        </g>
                      </g>
                    </g>
                  </g>
                </g>
              </g>
            </g>
            <path id="Path_55" data-name="Path 55" d="M198.172,145.969h-3.259a3.282,3.282,0,0,1-3.282-3.282v-1.8a3.464,3.464,0,0,0-4.552-3.289,25.659,25.659,0,0,1-16.1,0l-.006,0a3.464,3.464,0,0,0-4.551,3.29v1.8a3.282,3.282,0,0,1-3.282,3.282H159.88v5.367a2.483,2.483,0,0,0,2.483,2.483.816.816,0,0,1,.812.771,15.883,15.883,0,0,0,31.7,0,.817.817,0,0,1,.812-.771,2.483,2.483,0,0,0,2.483-2.483v-5.367Z" transform="translate(-159.88 -137.424)" fill="#ffddce"/>
            <path id="Path_56" data-name="Path 56" d="M264.9,145.972a3.282,3.282,0,0,1-3.282-3.282v-1.8a3.464,3.464,0,0,0-4.552-3.289q-.929.307-1.874.539v17.725a15.879,15.879,0,0,1-7.914,13.5,15.866,15.866,0,0,0,17.585-14.776.817.817,0,0,1,.812-.771,2.483,2.483,0,0,0,2.483-2.483v-5.367H264.9Z" transform="translate(-229.867 -137.427)" fill="#ffcbbe"/>
          </g>
          <g id="Group_51" data-name="Group 51" transform="translate(21.835 48.367)">
            <path id="Path_57" data-name="Path 57" d="M186.321,316.06l-6.685,5.432,7.011,8.669a2.322,2.322,0,0,0,3.109.118l5.272-4.4Z" transform="translate(-179.636 -316.06)" fill="#f4fbff"/>
            <path id="Path_58" data-name="Path 58" d="M265.244,316.06l-8.346,9.815,4.955,4.237a2.323,2.323,0,0,0,3.118-.09l6.961-8.53Z" transform="translate(-241.506 -316.06)" fill="#f4fbff"/>
          </g>
        </g>
        <path id="Path_59" data-name="Path 59" d="M169.216,316.06l-9.813,4.821a1.486,1.486,0,0,0-.666,2.016l1.922,3.727a2.5,2.5,0,0,1-.455,2.911l-1.2,1.194a2.49,2.49,0,0,0-.611,2.537c2.321,7.076,13.492,17.9,17.72,21.81q.426.011.855.016c-3.066-5.963-13.93-28.619-7.757-39.032Z" transform="translate(-140.695 -267.693)" fill="#365e7d"/>
        <path id="Path_60" data-name="Path 60" d="M276.632,329.534a2.5,2.5,0,0,1-.455-2.911L278.1,322.9a1.486,1.486,0,0,0-.666-2.016l-9.813-4.821c6.171,10.41-4.685,33.056-7.754,39.027q.433-.007.864-.022c4.236-3.924,15.389-14.73,17.708-21.8a2.49,2.49,0,0,0-.611-2.537Z" transform="translate(-222.048 -267.693)" fill="#365e7d"/>
        <path id="Path_61" data-name="Path 61" d="M236.03,365.327l-5.192,4.336,2.645,3.343h4.735l2.645-3.54Z" transform="translate(-198.802 -307.145)" fill="#dd636e"/>
      </g>
    </g>
  </g>
</svg>
