<svg id="vision" xmlns="http://www.w3.org/2000/svg" width="38.971" height="25.118" viewBox="0 0 38.971 25.118">
  <g id="Group_11" data-name="Group 11" transform="translate(0 0)">
    <g id="Group_10" data-name="Group 10">
      <path id="Path_28" data-name="Path 28" d="M38.758,102.893C38.41,102.406,30.117,91,19.563,91S.562,102.406.215,102.893a1.138,1.138,0,0,0,0,1.329c.348.486,8.793,11.895,19.348,11.895s18.847-11.408,19.195-11.895A1.138,1.138,0,0,0,38.758,102.893Zm-19.195,8.657a7.994,7.994,0,1,1,0-15.984,7.992,7.992,0,0,1,0,15.984Z" transform="translate(0 -90.998)" fill="#161a4f"/>
    </g>
  </g>
  <g id="Group_13" data-name="Group 13" transform="translate(15.985 9.134)">
    <g id="Group_12" data-name="Group 12">
      <path id="Path_29" data-name="Path 29" d="M213.583,211a3.428,3.428,0,1,0,0,6.85,3.425,3.425,0,0,0,0-6.85Z" transform="translate(-210.006 -210.999)" fill="#161a4f"/>
    </g>
  </g>
</svg>
